<svg width="1200" height="400" viewBox="0 0 1200 400" fill="none" xmlns="http://www.w3.org/2000/svg">
  <!-- A stylized -->
  <path d="M160 80 L240 280 L200 280 L185 240 L115 240 L100 280 L60 280 L140 80 L160 80 Z M150 130 L125 200 L175 200 L150 130 Z" fill="#4f90df"/>
  
  <!-- E -->
  <path d="M280 80 L420 80 L420 120 L320 120 L320 160 L400 160 L400 200 L320 200 L320 240 L420 240 L420 280 L280 280 L280 80 Z" fill="#1a1a2e"/>
  
  <!-- M -->
  <path d="M460 80 L500 80 L550 200 L600 80 L640 80 L640 280 L600 280 L600 140 L550 260 L550 260 L500 140 L500 280 L460 280 L460 80 Z" fill="#1a1a2e"/>
  
  <!-- P -->
  <path d="M680 80 L760 80 C 800 80 820 100 820 140 C 820 180 800 200 760 200 L720 200 L720 280 L680 280 L680 80 Z M720 120 L720 160 L760 160 C 770 160 780 155 780 140 C 780 125 770 120 760 120 L720 120 Z" fill="#1a1a2e"/>
  
  <!-- R -->
  <path d="M860 80 L940 80 C 980 80 1000 100 1000 140 C 1000 170 985 185 965 190 L1010 280 L965 280 L925 200 L900 200 L900 280 L860 280 L860 80 Z M900 120 L900 160 L940 160 C 950 160 960 155 960 140 C 960 125 950 120 940 120 L900 120 Z" fill="#1a1a2e"/>
  
  <!-- E -->
  <path d="M1040 80 L1180 80 L1180 120 L1080 120 L1080 160 L1160 160 L1160 200 L1080 200 L1080 240 L1180 240 L1180 280 L1040 280 L1040 80 Z" fill="#1a1a2e"/>
  
  <!-- N -->
  <path d="M160 320 L200 320 L280 400 L280 320 L320 320 L320 480 L280 480 L200 400 L200 480 L160 480 L160 320 Z" fill="#1a1a2e"/>
  
  <!-- D -->
  <path d="M360 320 L420 320 C 480 320 520 350 520 400 C 520 450 480 480 420 480 L360 480 L360 320 Z M400 360 L400 440 L420 440 C 455 440 480 425 480 400 C 480 375 455 360 420 360 L400 360 Z" fill="#1a1a2e"/>
  
  <!-- E -->
  <path d="M560 320 L700 320 L700 360 L600 360 L600 380 L680 380 L680 420 L600 420 L600 440 L700 440 L700 480 L560 480 L560 320 Z" fill="#1a1a2e"/>
</svg>
