<svg version="1.2" xmlns="http://www.w3.org/2000/svg" viewBox="0 0 1458 219" width="1458" height="219">
	<defs>
		<clipPath clipPathUnits="userSpaceOnUse" id="cp1">
			<path d="m3.67-75h1458.66v378.67h-1458.66z"/>
		</clipPath>
		<clipPath clipPathUnits="userSpaceOnUse" id="cp2">
			<path d="m5.99 6.59h130.63v197.24h-130.63z"/>
		</clipPath>
		<clipPath clipPathUnits="userSpaceOnUse" id="cp3">
			<path d="m131.26 7.24c1.29 0.49 2.11 1.27 2.51 1.71q1.31 2.83 2.62 5.66-6.64 16.23-13.4 32.41-16.55 39.66-33.81 79.03 22.73 0.02 45.46 0.05-17.84 20.19-35.68 40.39c-1.8 0.18-4.45 0.55-7.55 1.43-2.81 0.8-17.5 4.97-25 17.49-3.78 6.31-3.31 10.72-8.82 14.94-2.6 1.99-5.23 2.96-7.04 3.47q-20.91-0.03-41.81-0.06c-1.38-0.48-2.12-1.07-2.45-1.78-0.89-1.89 0.5-4.35 0.75-4.81 2.07-3.85 34.5-80.22 79.74-187.23 0.47-0.58 1.28-1.41 2.51-2.08 1.93-1.04 3.76-1.03 4.6-0.98 22.46-0.01 33.37-0.03 34.87-0.05 0.37-0.01 1.37-0.01 2.5 0.41z"/>
		</clipPath>
		<clipPath clipPathUnits="userSpaceOnUse" id="cp4">
			<path d="m5 6.33h132v198.67h-132z"/>
		</clipPath>
		<clipPath clipPathUnits="userSpaceOnUse" id="cp5">
			<path d="m5.99 6.65h130.53v197.18h-130.53z"/>
		</clipPath>
		<clipPath clipPathUnits="userSpaceOnUse" id="cp6">
			<path d="m131.26 7.24c1.29 0.49 2.11 1.27 2.51 1.71q1.31 2.83 2.62 5.66-6.64 16.23-13.4 32.41-16.55 39.66-33.81 79.03 22.73 0.02 45.46 0.05-17.84 20.19-35.68 40.39c-1.8 0.18-4.45 0.55-7.55 1.43-2.81 0.8-17.5 4.97-25 17.49-3.78 6.31-3.31 10.72-8.82 14.94-2.6 1.99-5.23 2.96-7.04 3.47q-20.91-0.03-41.81-0.06c-1.38-0.48-2.12-1.07-2.45-1.78-0.89-1.89 0.5-4.35 0.75-4.81 2.07-3.85 34.5-80.22 79.74-187.23 0.47-0.58 1.28-1.41 2.51-2.08 1.93-1.04 3.76-1.03 4.6-0.98 22.46-0.01 33.37-0.03 34.87-0.05 0.37-0.01 1.37-0.01 2.5 0.41z"/>
		</clipPath>
		<clipPath clipPathUnits="userSpaceOnUse" id="cp7">
			<path d="m111.53 14.1h88.88v189.02h-88.88z"/>
		</clipPath>
		<clipPath clipPathUnits="userSpaceOnUse" id="cp8">
			<path d="m136.25 14.3q2.86 6.07 6.15 13.21c29.13 63.3 43.39 99.52 49.68 114.14 1.93 4.46 4.15 8.84 5.99 13.33 3.23 7.88 2.62 11.04-0.68 18.71-4.09 9.49-13.17 19.35-20.95 26.1-2.88 2.49-7.36 5.2-10.03 0.94-1.37-2.18-2.14-5.07-3.38-7.42-0.08-0.75-0.6-1.98-1.13-2.5q-13.5-32.43-27.4-64.67-11.33-26.26-22.93-52.42 12.34-29.7 24.68-59.42z"/>
		</clipPath>
		<clipPath clipPathUnits="userSpaceOnUse" id="cp9">
			<path d="m110.33 13h90.67v190.67h-90.67z"/>
		</clipPath>
		<clipPath clipPathUnits="userSpaceOnUse" id="cp10">
			<path d="m111.56 14.1h88.85v189.02h-88.85z"/>
		</clipPath>
		<clipPath clipPathUnits="userSpaceOnUse" id="cp11">
			<path d="m136.25 14.3q2.86 6.07 6.15 13.21c29.13 63.3 43.39 99.52 49.68 114.14 1.93 4.46 4.15 8.84 5.99 13.33 3.23 7.88 2.62 11.04-0.68 18.71-4.09 9.49-13.17 19.35-20.95 26.1-2.88 2.49-7.36 5.2-10.03 0.94-1.37-2.18-2.14-5.07-3.38-7.42-0.08-0.75-0.6-1.98-1.13-2.5q-13.5-32.43-27.4-64.67-11.33-26.26-22.93-52.42 12.34-29.7 24.68-59.42z"/>
		</clipPath>
		<clipPath clipPathUnits="userSpaceOnUse" id="cp12">
			<path d="m98.86 125.96h63.09v64.97h-63.09z"/>
		</clipPath>
		<clipPath clipPathUnits="userSpaceOnUse" id="cp13">
			<path d="m161.9 190.81c-0.09-0.1-0.33-0.14-0.46-0.23-2.51-4.05-7.23-10.4-15.17-15.39-6.21-3.89-11.7-5.27-17.17-6.6-6.71-1.62-17.07-3.29-30.15-2.1q17.78-20.17 35.55-40.35c0.1 0.2 0.26 0.54 0.36 0.77 0 0 1.81 3.84 3.52 7.54 14.43 31.22 21.76 51.41 21.76 51.41 0.55 1.7 1.5 3.13 1.76 4.95z"/>
		</clipPath>
		<clipPath clipPathUnits="userSpaceOnUse" id="cp14">
			<path d="m98.33 125h64v66.67h-64z"/>
		</clipPath>
		<clipPath clipPathUnits="userSpaceOnUse" id="cp15">
			<path d="m98.86 126.02h63.09v64.91h-63.09z"/>
		</clipPath>
		<clipPath clipPathUnits="userSpaceOnUse" id="cp16">
			<path d="m161.9 190.81c-0.09-0.1-0.33-0.14-0.46-0.23-2.51-4.05-7.23-10.4-15.17-15.39-6.21-3.89-11.7-5.27-17.17-6.6-6.71-1.62-17.07-3.29-30.15-2.1q17.78-20.17 35.55-40.35c0.1 0.2 0.26 0.54 0.36 0.77 0 0 1.81 3.84 3.52 7.54 14.43 31.22 21.76 51.41 21.76 51.41 0.55 1.7 1.5 3.13 1.76 4.95z"/>
		</clipPath>
		<clipPath clipPathUnits="userSpaceOnUse" id="cp17">
			<path d="m161.24 190.46h1.88v3.05h-1.88z"/>
		</clipPath>
		<clipPath clipPathUnits="userSpaceOnUse" id="cp18">
			<path d="m161.9 190.81c0.54 0.52 1.05 1.75 1.14 2.5-0.37-0.7-1.14-2-1.6-2.73 0.13 0.09 0.36 0.14 0.46 0.23z"/>
		</clipPath>
		<clipPath clipPathUnits="userSpaceOnUse" id="cp19">
			<path d="m161 190.33h2.67v4h-2.67z"/>
		</clipPath>
		<clipPath clipPathUnits="userSpaceOnUse" id="cp20">
			<path d="m161.24 190.46h1.84v3.05h-1.84z"/>
		</clipPath>
		<clipPath clipPathUnits="userSpaceOnUse" id="cp21">
			<path d="m161.9 190.81c0.54 0.52 1.05 1.75 1.14 2.5-0.37-0.7-1.14-2-1.6-2.73 0.13 0.09 0.36 0.14 0.46 0.23z"/>
		</clipPath>
		<clipPath clipPathUnits="userSpaceOnUse" id="cp22">
			<path d="m88.31 74.14h23.22v52.06h-23.22z"/>
		</clipPath>
		<clipPath clipPathUnits="userSpaceOnUse" id="cp23">
			<path d="m89.18 126.05c-1.74-0.28-0.35-1.15-0.28-1.51 0.05-0.22-0.18-0.55-0.08-0.99 0.17-0.74 1.11-1.46 1.5-2.16 1.78-3.15 2.38-6.72 3.59-10.05 0.33-0.95 1.62-2.09 2.1-3.12 1.79-3.89 2.35-8.58 4.57-12.25 2.35-3.87 2.82-6.02 4.47-10.07 1.13-2.79 2.63-5.44 3.84-8.2 0.32-0.72 0.39-1.64 0.69-2.26 0.29-0.6 1.41-1.86 1.87-0.75-6.24 14.44-12.26 29.02-18.79 43.34-0.89 1.94-2.09 4.15-3.09 6.25-0.23 0.48-0.3 1.23-0.39 1.77z"/>
		</clipPath>
		<clipPath clipPathUnits="userSpaceOnUse" id="cp24">
			<path d="m87.67 73h24v53.33h-24z"/>
		</clipPath>
		<clipPath clipPathUnits="userSpaceOnUse" id="cp25">
			<path d="m88.31 74.14h23.22v52.06h-23.22z"/>
		</clipPath>
		<clipPath clipPathUnits="userSpaceOnUse" id="cp26">
			<path d="m89.18 126.05c-1.74-0.28-0.35-1.15-0.28-1.51 0.05-0.22-0.18-0.55-0.08-0.99 0.17-0.74 1.11-1.46 1.5-2.16 1.78-3.15 2.38-6.72 3.59-10.05 0.33-0.95 1.62-2.09 2.1-3.12 1.79-3.89 2.35-8.58 4.57-12.25 2.35-3.87 2.82-6.02 4.47-10.07 1.13-2.79 2.63-5.44 3.84-8.2 0.32-0.72 0.39-1.64 0.69-2.26 0.29-0.6 1.41-1.86 1.87-0.75-6.24 14.44-12.26 29.02-18.79 43.34-0.89 1.94-2.09 4.15-3.09 6.25-0.23 0.48-0.3 1.23-0.39 1.77z"/>
		</clipPath>
		<clipPath clipPathUnits="userSpaceOnUse" id="cp27">
			<path d="m92.53 126.2h0.94v0.7h-0.94z"/>
		</clipPath>
		<clipPath clipPathUnits="userSpaceOnUse" id="cp28">
			<path d="m93.27 126.28c0.25 0.25-0.2 0.7-0.45 0.45-0.25-0.25 0.2-0.7 0.45-0.45z"/>
		</clipPath>
		<clipPath clipPathUnits="userSpaceOnUse" id="cp29">
			<path d="m91.67 125h2.66v2.67h-2.66z"/>
		</clipPath>
		<clipPath clipPathUnits="userSpaceOnUse" id="cp30">
			<path d="m92.53 126.2h0.94v0.7h-0.94z"/>
		</clipPath>
		<clipPath clipPathUnits="userSpaceOnUse" id="cp31">
			<path d="m93.27 126.28c0.25 0.25-0.2 0.7-0.45 0.45-0.25-0.25 0.2-0.7 0.45-0.45z"/>
		</clipPath>
		<clipPath clipPathUnits="userSpaceOnUse" id="cp32">
			<path d="m146 10.58h100.61v34.24h-100.61z"/>
		</clipPath>
		<clipPath clipPathUnits="userSpaceOnUse" id="cp33">
			<path d="m146.16 13.47c-0.52-1.21 0.3-2.61 1.54-2.61l97.11-0.24c0.99 0 1.78 0.68 1.78 1.52v30.16c0 1.25-1.19 2.26-2.67 2.26l-83.17 0.04c-0.66 0-1.27-0.41-1.54-1.06q-6.53-15.03-13.05-30.07z"/>
		</clipPath>
		<clipPath clipPathUnits="userSpaceOnUse" id="cp34">
			<path d="m145 10.33h102.67v34.67h-102.67z"/>
		</clipPath>
		<clipPath clipPathUnits="userSpaceOnUse" id="cp35">
			<path d="m146 10.58h100.6v34.15h-100.6z"/>
		</clipPath>
		<clipPath clipPathUnits="userSpaceOnUse" id="cp36">
			<path d="m146.16 13.47c-0.52-1.21 0.3-2.61 1.54-2.61l97.11-0.24c0.99 0 1.78 0.68 1.78 1.52v30.16c0 1.25-1.19 2.26-2.67 2.26l-83.17 0.04c-0.66 0-1.27-0.41-1.54-1.06q-6.53-15.03-13.05-30.07z"/>
		</clipPath>
		<clipPath clipPathUnits="userSpaceOnUse" id="cp37">
			<path d="m180.47 86.57h66.14v35.17h-66.14z"/>
		</clipPath>
		<clipPath clipPathUnits="userSpaceOnUse" id="cp38">
			<path d="m182.3 86.69h62.52c0.98 0 1.78 0.78 1.78 1.76v31.31c0 0.98-0.8 1.77-1.78 1.77h-49.64c-0.72 0-1.37-0.44-1.64-1.1q-6.44-15.65-12.88-31.3c-0.48-1.17 0.38-2.44 1.64-2.44z"/>
		</clipPath>
		<clipPath clipPathUnits="userSpaceOnUse" id="cp39">
			<path d="m179.67 86.33h68v36h-68z"/>
		</clipPath>
		<clipPath clipPathUnits="userSpaceOnUse" id="cp40">
			<path d="m180.47 86.65h66.13v34.88h-66.13z"/>
		</clipPath>
		<clipPath clipPathUnits="userSpaceOnUse" id="cp41">
			<path d="m182.3 86.69h62.52c0.98 0 1.78 0.78 1.78 1.76v31.31c0 0.98-0.8 1.77-1.78 1.77h-49.64c-0.72 0-1.37-0.44-1.64-1.1q-6.44-15.65-12.88-31.31c-0.48-1.16 0.38-2.43 1.64-2.43z"/>
		</clipPath>
		<clipPath clipPathUnits="userSpaceOnUse" id="cp42">
			<path d="m189.85 168.65h56.76v34.47h-56.76z"/>
		</clipPath>
		<clipPath clipPathUnits="userSpaceOnUse" id="cp43">
			<path d="m211.28 168.69h33.58c0.96 0 1.73 0.84 1.73 1.87v30.49c0 1.03-0.77 1.87-1.73 1.87q-26.52 0.03-53.03 0.06c-1.61 0-2.36-2.14-1.15-3.28 3.65-3.44 7.83-8.12 11.64-14.25 3.53-5.68 5.83-11.1 7.33-15.54 0.25-0.73 0.9-1.22 1.63-1.22z"/>
		</clipPath>
		<clipPath clipPathUnits="userSpaceOnUse" id="cp44">
			<path d="m189 167.67h58.67v36h-58.67z"/>
		</clipPath>
		<clipPath clipPathUnits="userSpaceOnUse" id="cp45">
			<path d="m189.85 168.65h56.75v34.47h-56.75z"/>
		</clipPath>
		<clipPath clipPathUnits="userSpaceOnUse" id="cp46">
			<path d="m211.28 168.69h33.58c0.96 0 1.73 0.84 1.73 1.87v30.49c0 1.03-0.77 1.87-1.73 1.87q-26.52 0.03-53.03 0.06c-1.61 0-2.36-2.14-1.15-3.28 3.65-3.44 7.83-8.12 11.64-14.25 3.53-5.68 5.83-11.1 7.33-15.54 0.25-0.73 0.9-1.22 1.63-1.22z"/>
		</clipPath>
		<clipPath clipPathUnits="userSpaceOnUse" id="cp47">
			<path d="m263.67-74.95h1197.97v378.56h-1197.97z"/>
		</clipPath>
		<clipPath clipPathUnits="userSpaceOnUse" id="cp48">
			<path d="m263.67-75h1198.66v378.67h-1198.66z"/>
		</clipPath>
	</defs>
	<style>
		.s0 { fill: #4f90df } 
		.s1 { fill: #162043 } 
		.s2 { fill: #286d9e } 
		.s3 { fill: #fdf9f6 } 
	</style>
	<g>
		<g id="Clip-Path" clip-path="url(#cp1)">
			<g>
				<g id="Clip-Path" clip-path="url(#cp2)">
					<g>
						<g id="Clip-Path" clip-path="url(#cp3)">
							<g>
								<g>
									<g id="Clip-Path" clip-path="url(#cp4)">
										<g>
											<g id="Clip-Path" clip-path="url(#cp5)">
												<g>
													<g id="Clip-Path" clip-path="url(#cp6)">
														<g>
															<path fill-rule="evenodd" class="s0" d="m-925.88-818.79h3317.76v1866.24h-3317.76z"/>
														</g>
													</g>
												</g>
											</g>
										</g>
									</g>
								</g>
							</g>
						</g>
					</g>
				</g>
				<g id="Clip-Path" clip-path="url(#cp7)">
					<g>
						<g id="Clip-Path" clip-path="url(#cp8)">
							<g>
								<g>
									<g id="Clip-Path" clip-path="url(#cp9)">
										<g>
											<g id="Clip-Path" clip-path="url(#cp10)">
												<g>
													<g id="Clip-Path" clip-path="url(#cp11)">
														<g>
															<path fill-rule="evenodd" class="s1" d="m-925.88-818.79h3317.76v1866.24h-3317.76z"/>
														</g>
													</g>
												</g>
											</g>
										</g>
									</g>
								</g>
							</g>
						</g>
					</g>
				</g>
				<g id="Clip-Path" clip-path="url(#cp12)">
					<g>
						<g id="Clip-Path" clip-path="url(#cp13)">
							<g>
								<g>
									<g id="Clip-Path" clip-path="url(#cp14)">
										<g>
											<g id="Clip-Path" clip-path="url(#cp15)">
												<g>
													<g id="Clip-Path" clip-path="url(#cp16)">
														<g>
															<path fill-rule="evenodd" class="s2" d="m-925.88-818.79h3317.76v1866.24h-3317.76z"/>
														</g>
													</g>
												</g>
											</g>
										</g>
									</g>
								</g>
							</g>
						</g>
					</g>
				</g>
				<g id="Clip-Path" clip-path="url(#cp17)">
					<g>
						<g id="Clip-Path" clip-path="url(#cp18)">
							<g>
								<g>
									<g id="Clip-Path" clip-path="url(#cp19)">
										<g>
											<g id="Clip-Path" clip-path="url(#cp20)">
												<g>
													<g id="Clip-Path" clip-path="url(#cp21)">
														<g>
															<path fill-rule="evenodd" class="s3" d="m-925.88-818.79h3317.76v1866.24h-3317.76z"/>
														</g>
													</g>
												</g>
											</g>
										</g>
									</g>
								</g>
							</g>
						</g>
					</g>
				</g>
				<g id="Clip-Path" clip-path="url(#cp22)">
					<g>
						<g id="Clip-Path" clip-path="url(#cp23)">
							<g>
								<g>
									<g id="Clip-Path" clip-path="url(#cp24)">
										<g>
											<g id="Clip-Path" clip-path="url(#cp25)">
												<g>
													<g id="Clip-Path" clip-path="url(#cp26)">
														<g>
															<path fill-rule="evenodd" class="s0" d="m-925.88-818.79h3317.76v1866.24h-3317.76z"/>
														</g>
													</g>
												</g>
											</g>
										</g>
									</g>
								</g>
							</g>
						</g>
					</g>
				</g>
				<g id="Clip-Path" clip-path="url(#cp27)">
					<g>
						<g id="Clip-Path" clip-path="url(#cp28)">
							<g>
								<g>
									<g id="Clip-Path" clip-path="url(#cp29)">
										<g>
											<g id="Clip-Path" clip-path="url(#cp30)">
												<g>
													<g id="Clip-Path" clip-path="url(#cp31)">
														<g>
															<path fill-rule="evenodd" class="s0" d="m-925.88-818.79h3317.76v1866.24h-3317.76z"/>
														</g>
													</g>
												</g>
											</g>
										</g>
									</g>
								</g>
							</g>
						</g>
					</g>
				</g>
				<g id="Clip-Path" clip-path="url(#cp32)">
					<g>
						<g id="Clip-Path" clip-path="url(#cp33)">
							<g>
								<g>
									<g id="Clip-Path" clip-path="url(#cp34)">
										<g>
											<g id="Clip-Path" clip-path="url(#cp35)">
												<g>
													<g id="Clip-Path" clip-path="url(#cp36)">
														<g>
															<path fill-rule="evenodd" class="s1" d="m-925.88-818.79h3317.76v1866.24h-3317.76z"/>
														</g>
													</g>
												</g>
											</g>
										</g>
									</g>
								</g>
							</g>
						</g>
					</g>
				</g>
				<g id="Clip-Path" clip-path="url(#cp37)">
					<g>
						<g id="Clip-Path" clip-path="url(#cp38)">
							<g>
								<g>
									<g id="Clip-Path" clip-path="url(#cp39)">
										<g>
											<g id="Clip-Path" clip-path="url(#cp40)">
												<g>
													<g id="Clip-Path" clip-path="url(#cp41)">
														<g>
															<path fill-rule="evenodd" class="s1" d="m-925.88-818.79h3317.76v1866.24h-3317.76z"/>
														</g>
													</g>
												</g>
											</g>
										</g>
									</g>
								</g>
							</g>
						</g>
					</g>
				</g>
				<g id="Clip-Path" clip-path="url(#cp42)">
					<g>
						<g id="Clip-Path" clip-path="url(#cp43)">
							<g>
								<g>
									<g id="Clip-Path" clip-path="url(#cp44)">
										<g>
											<g id="Clip-Path" clip-path="url(#cp45)">
												<g>
													<g id="Clip-Path" clip-path="url(#cp46)">
														<g>
															<path fill-rule="evenodd" class="s1" d="m-925.88-818.79h3317.76v1866.24h-3317.76z"/>
														</g>
													</g>
												</g>
											</g>
										</g>
									</g>
								</g>
							</g>
						</g>
					</g>
				</g>
				<g id="Clip-Path" clip-path="url(#cp47)">
					<g>
						<g>
							<g id="Clip-Path" clip-path="url(#cp48)">
								<g>
									<g>
										<g>
											<g>
												<path class="s1" d="m283.42 205.33v-195.5h43.82l46.87 122.3h-7.21l46.59-122.3h43.27v195.5h-37.73v-136.7h1.67l-39.65 103.14h-22.48l-39.37-103.14h2.22v136.7z"/>
											</g>
										</g>
									</g>
									<g>
										<g>
											<g>
												<path class="s1" d="m493.92 205.33v-195.5h75.68q18.04 0 30.79 7.5 12.75 7.49 19.82 21.21 7.08 13.71 7.08 33.13 0 19.14-7.08 33.14-7.07 14.01-19.82 21.77-12.75 7.75-30.79 7.75h-35.21v71zm40.48-102.87h28.3q12.18 0 18.83-7.77 6.66-7.77 6.67-22.46-0.01-14.98-6.67-22.73-6.65-7.77-18.83-7.77h-28.3z"/>
											</g>
										</g>
									</g>
									<g>
										<g>
											<g>
												<path class="s1" d="m654.76 205.33v-195.5h74.58q27.73 0 43.25 15.67 15.54 15.67 15.54 43.67 0 17.48-6.1 29.96-6.11 12.48-16.8 19.41-10.66 6.92-24.79 8.04l1.65-2.23 7.77 0.28q7.5 0.56 13.46 5.83 5.95 5.27 10.39 16.08l24.96 58.79h-44.91l-24.69-59.06q-2.24-5.54-4.88-8.87-2.62-3.33-6.08-4.71-3.46-1.4-8.46-1.4h-14.42v74.04zm40.48-104.27h28q12.48 0 19.13-7.75 6.66-7.77 6.67-22.21-0.01-14.41-6.67-21.89-6.65-7.48-19.4-7.48h-27.73z"/>
											</g>
										</g>
									</g>
									<g>
										<g>
											<g>
												<path class="s1" d="m821.7 205.33v-195.5h113.12v32.17h-74.31v48.25h68.5v32.17h-68.5v50.75h74.31v32.16z"/>
											</g>
										</g>
									</g>
									<g>
										<g>
											<g>
												<path class="s1" d="m968.67 205.33v-195.5h31.04l84.31 140.05h-8.87v-140.05h37.44v195.5h-31.9l-83.19-139.2h8.61v139.2z"/>
											</g>
										</g>
									</g>
									<g>
										<g>
											<g>
												<path class="s1" d="m1149.2 205.33v-195.5h67.94q27.16 0 45.75 11.11 18.58 11.08 28.14 32.85 9.56 21.75 9.56 53.65 0 31.9-9.56 53.66-9.56 21.78-28.14 33-18.59 11.24-45.75 11.23zm40.47-33.83h24.96q22.73 0 33.54-15.25 10.84-15.25 10.84-48.81 0-33.27-10.84-48.52-10.81-15.25-33.54-15.25h-24.96z"/>
											</g>
										</g>
									</g>
									<g>
										<g>
											<g>
												<path class="s1" d="m1332.5 205.33v-195.5h113.12v32.17h-74.31v48.25h68.5v32.17h-68.5v50.75h74.31v32.16z"/>
											</g>
										</g>
									</g>
								</g>
							</g>
						</g>
					</g>
				</g>
			</g>
		</g>
	</g>
</svg>